<svg width="430" height="430" viewBox="0 0 430 430" fill="none" xmlns="http://www.w3.org/2000/svg">
<path d="M87.013 190.262C64.5499 190.262 41.9586 179.305 25.3141 164.808C22.6277 162.468 19.615 160.451 17.1049 157.941C15.3388 156.175 22.0721 157.397 24.5397 157.012C30.4505 156.088 36.3114 153.783 41.7327 151.281C43.4955 150.467 38.6092 148.633 38.067 148.286C24.4759 139.588 15.292 126.935 7.55317 113.177C5.70367 109.889 8.89347 111.572 11.2189 112.403C19.0164 115.187 26.8872 117.794 34.7626 120.354C38.1468 121.454 41.6448 122.028 44.9855 123.142C45.6849 123.375 44.308 114.8 44.2626 112.919C44.0669 104.794 43.2674 97.534 44.779 89.427C46.7536 78.836 51.5316 68.891 54.4855 58.5517C57.4751 48.0883 60.369 37.8532 64.7084 28.0895C66.7426 23.5127 70.48 18.1359 74.002 14.6139C76.608 12.0082 76.368 18.445 76.79 19.9835C78.319 25.5582 80.001 31.3576 82.16 36.7119C84.839 43.3575 87.351 50.1105 89.801 56.8479C90.188 57.913 91.561 60.025 92.641 60.565C93.837 61.163 97.345 60.072 98.578 59.946C103.255 59.467 107.937 59.142 112.622 58.7582C121.311 58.046 130.351 57.8682 139.057 58.5001C146.538 59.043 153.949 61.658 161.361 62.011C163.877 62.131 166.105 62.134 168.59 62.734C170.436 63.179 172.28 61.413 173.649 60.462C177.851 57.5446 182.144 54.9172 186.66 52.5109C200.129 45.3352 214.408 39.6698 228.068 32.8396C236.202 28.7725 244.976 25.807 252.799 21.171C253.413 20.8073 259.77 16.9199 259.77 17.9699C259.77 21.8279 257.241 26.9621 256.104 30.5162C251.228 45.753 246.367 61.173 244.28 77.087C243.365 84.063 242.047 91.408 245.932 97.791C252.59 108.728 271.26 100.748 281.248 99.908C288.209 99.322 295.073 99.185 302.055 99.185C306.719 99.185 304.606 100.443 302.571 103.367C292.55 117.773 270.037 122.899 254.142 126.033C249.035 127.04 246.672 126.096 251.509 127.272C260.233 129.394 267.867 135.779 274.742 141.213C282.818 147.595 289.2 154.964 294.982 163.414C296.346 165.407 291.127 166.023 289.612 166.099C278.702 166.644 267.376 164.976 256.723 162.846C249.415 161.384 243.118 157.927 236.174 155.463C234.716 154.945 231.819 154.193 229.54 153.548C233.722 157.39 238.278 168.717 239.548 171.876L239.634 172.088C245.12 185.709 253.018 198.023 257.085 212.257C260.546 224.371 264.794 235.599 266.946 248.037C269.837 264.738 270.476 281.82 273.348 298.48C274.792 306.85 273.385 315.587 272.161 323.882C279.739 325.398 298.143 318.644 309 305.45C317.892 294.644 325.253 287.878 326 273.904C326.316 267.994 324.033 259.47 323.272 256.818C323.114 256.269 322.975 255.728 322.862 255.168C322.195 251.858 319.684 239.403 318 231C313.071 206.406 306.004 198.224 305.5 168C305.105 144.276 315.656 135.89 331.904 118.289C350.453 98.194 376.521 94.556 402.897 96.139C407.778 96.432 415.595 96.654 420.141 98.927C420.729 99.221 414.443 104.422 413.429 105.639C393.481 129.577 381.164 162.84 400.625 190.262C404.762 196.092 409.559 201.75 414.359 207.042C417.263 210.244 422.168 212.254 422 216.955C421.73 224.506 416.117 231.906 414.359 239.259C411.555 250.982 405.694 261.971 403 273.904C400.722 283.99 402.751 295.502 404.342 305.45C405.13 310.377 406.489 315.079 406.924 320.113C407.523 327.046 404.51 333.343 401.554 339.423C395.46 351.96 387.807 362.932 373.983 367.304C350.892 374.606 346.426 377.315 323.03 370.557C310.231 366.859 298.643 360.938 282.694 362.709C278.449 363.18 258.963 368.352 255.433 369.627C250.949 370.929 246.436 371.701 241.957 372.88C241.381 373.032 241.583 375.932 241.337 377.527C240.365 383.849 239.886 389.788 237.155 395.856C232.19 406.889 221.788 417.093 212.269 405.459C208.16 400.437 206.09 393.776 204.112 387.698C203.033 384.386 200 374 199 369.73C197.459 369.045 193.008 370.557 191.101 370.557C185.934 370.557 180.463 372.235 175.302 372.88C168.306 373.754 161.355 374.748 154.339 375.41C147.672 376.039 141.05 378.605 134.41 378.921C133 383.5 127.104 397.918 124.91 402.155C122.64 406.539 117.859 413.927 112.88 415.527C106.575 417.554 100.898 413.313 98.63 407.731C94.463 397.475 90.5 388 87.478 376.649C86.067 374.925 83.711 374.903 81.643 374.48C77.284 373.589 73.369 371.893 69.149 370.557C52.5292 365.294 44.7644 350.435 44.6757 333.486C44.581 315.396 49.2504 296.913 52.1622 279.118C55.4166 259.23 65.3746 241.766 73.899 223.77C77.293 216.605 78.931 208.486 82.366 201.414C83.919 198.217 87.013 193.701 87.013 190.262Z" fill="#292E55"/>
<path d="M87.013 190.262C64.5499 190.262 41.9586 179.305 25.3141 164.808C22.6277 162.468 19.615 160.451 17.1049 157.941C15.3388 156.175 22.0721 157.397 24.5397 157.012C30.4505 156.088 36.3114 153.783 41.7327 151.281C43.4955 150.467 38.6092 148.633 38.067 148.286C24.4759 139.588 15.292 126.935 7.55317 113.177C5.70367 109.889 8.89347 111.572 11.2189 112.403C19.0164 115.187 26.8872 117.794 34.7626 120.354C38.1468 121.454 41.6448 122.028 44.9855 123.142C45.6849 123.375 44.308 114.8 44.2626 112.919C44.0669 104.794 43.2674 97.534 44.779 89.427C46.7536 78.836 51.5316 68.891 54.4855 58.5517C57.4751 48.0883 60.369 37.8532 64.7084 28.0895C66.7426 23.5127 70.48 18.1359 74.002 14.6139C76.608 12.0082 76.368 18.445 76.79 19.9835C78.319 25.5582 80.001 31.3576 82.16 36.7119C84.839 43.3575 87.351 50.1105 89.801 56.8479C90.188 57.913 91.561 60.025 92.641 60.565C93.837 61.163 97.345 60.072 98.578 59.946C103.255 59.467 107.937 59.142 112.622 58.7582C121.311 58.046 130.351 57.8682 139.057 58.5001C146.538 59.043 153.949 61.658 161.361 62.011C163.877 62.131 166.105 62.134 168.59 62.734C170.436 63.179 172.28 61.413 173.649 60.462C177.851 57.5446 182.144 54.9172 186.66 52.5109C200.129 45.3352 214.408 39.6698 228.068 32.8396C236.202 28.7725 244.976 25.807 252.799 21.171C253.413 20.8073 259.77 16.9199 259.77 17.9699C259.77 21.8279 257.241 26.9621 256.104 30.5162C251.228 45.753 246.367 61.173 244.28 77.087C243.365 84.063 242.047 91.408 245.932 97.791C252.59 108.728 271.26 100.748 281.248 99.908C288.209 99.322 295.073 99.185 302.055 99.185C306.719 99.185 304.606 100.443 302.571 103.367C292.55 117.773 270.037 122.899 254.142 126.033C249.035 127.04 246.672 126.096 251.509 127.272C260.233 129.394 267.867 135.779 274.742 141.213C282.818 147.595 289.2 154.964 294.982 163.414C296.346 165.407 291.127 166.023 289.612 166.099C278.702 166.644 267.376 164.976 256.723 162.846C249.415 161.384 243.118 157.927 236.174 155.463C234.716 154.945 231.819 154.193 229.54 153.548C233.722 157.39 238.278 168.717 239.548 171.876L239.634 172.088C245.12 185.709 253.018 198.023 257.085 212.257C260.546 224.371 264.794 235.599 266.946 248.037C269.837 264.738 270.476 281.82 273.348 298.48C274.792 306.85 273.385 315.587 272.161 323.882C279.739 325.398 298.143 318.644 309 305.45C317.892 294.644 325.253 287.878 326 273.904C326.316 267.994 324.033 259.47 323.272 256.818C323.114 256.269 322.975 255.728 322.862 255.168C322.195 251.858 319.684 239.403 318 231C313.071 206.406 306.004 198.224 305.5 168C305.105 144.276 315.656 135.89 331.904 118.289C350.453 98.194 376.521 94.556 402.897 96.139C407.778 96.432 415.595 96.654 420.141 98.927C420.729 99.221 414.443 104.422 413.429 105.639C393.481 129.577 381.164 162.84 400.625 190.262C404.762 196.092 409.559 201.75 414.359 207.042C417.263 210.244 422.168 212.254 422 216.955C421.73 224.506 416.117 231.906 414.359 239.259C411.555 250.982 405.694 261.971 403 273.904C400.722 283.99 402.751 295.502 404.342 305.45C405.13 310.377 406.489 315.079 406.924 320.113C407.523 327.046 404.51 333.343 401.554 339.423C395.46 351.96 387.807 362.932 373.983 367.304C350.892 374.606 346.426 377.315 323.03 370.557C310.231 366.859 298.643 360.938 282.694 362.709C278.449 363.18 258.963 368.352 255.433 369.627C250.949 370.929 246.436 371.701 241.957 372.88C241.381 373.032 241.583 375.932 241.337 377.527C240.365 383.849 239.886 389.788 237.155 395.856C232.19 406.889 221.788 417.093 212.269 405.459C208.16 400.437 206.09 393.776 204.112 387.698C203.033 384.386 200 374 199 369.73C197.459 369.045 193.008 370.557 191.101 370.557C185.934 370.557 180.463 372.235 175.302 372.88C168.306 373.754 161.355 374.748 154.339 375.41C147.672 376.039 141.05 378.605 134.41 378.921C133 383.5 127.104 397.918 124.91 402.155C122.64 406.539 117.859 413.927 112.88 415.527C106.575 417.554 100.898 413.313 98.63 407.731C94.463 397.475 90.5 388 87.478 376.649C86.067 374.925 83.711 374.903 81.643 374.48C77.284 373.589 73.369 371.893 69.149 370.557C52.5292 365.294 44.7644 350.435 44.6757 333.486C44.581 315.396 49.2504 296.913 52.1622 279.118C55.4166 259.23 65.3746 241.766 73.899 223.77C77.293 216.605 78.931 208.486 82.366 201.414C83.919 198.217 87.013 193.701 87.013 190.262Z" fill="#4D579C"/>
<path d="M272.161 323.882C273.385 315.587 274.792 306.85 273.348 298.48C270.476 281.82 269.837 264.738 266.946 248.037C264.794 235.599 260.546 224.371 257.085 212.257C253.018 198.023 245.12 185.709 239.634 172.088C238.261 168.681 231.751 152.262 226.984 152.262C223.74 152.262 233.117 154.378 236.174 155.463C243.118 157.927 249.415 161.384 256.723 162.846C267.376 164.976 278.702 166.644 289.612 166.099C291.127 166.023 296.346 165.407 294.982 163.414C289.2 154.964 282.818 147.595 274.742 141.213C267.867 135.779 260.233 129.394 251.509 127.272C246.672 126.096 249.035 127.04 254.142 126.033C270.037 122.899 292.55 117.773 302.571 103.367C304.606 100.443 306.719 99.185 302.055 99.185C295.073 99.185 288.209 99.322 281.248 99.908C271.26 100.748 252.59 108.728 245.932 97.791C242.047 91.408 243.365 84.063 244.28 77.087C246.367 61.173 251.228 45.753 256.104 30.5162C257.241 26.9621 259.77 21.8279 259.77 17.9699C259.77 16.9199 253.413 20.8073 252.799 21.171C244.976 25.807 236.202 28.7725 228.068 32.8396C214.408 39.6698 200.129 45.3352 186.66 52.5109C182.144 54.9172 177.851 57.5446 173.649 60.462C172.28 61.413 170.436 63.179 168.59 62.734C166.105 62.134 163.877 62.131 161.361 62.011C153.949 61.658 146.538 59.043 139.057 58.5001C130.351 57.8682 121.311 58.046 112.622 58.7582C107.937 59.142 103.255 59.467 98.578 59.946C97.345 60.072 93.837 61.163 92.641 60.565C91.561 60.025 90.188 57.913 89.801 56.8479C87.351 50.1105 84.839 43.3575 82.16 36.7119C80.001 31.3576 78.319 25.5582 76.79 19.9835C76.368 18.445 76.608 12.0082 74.002 14.6139C70.48 18.1359 66.7426 23.5127 64.7084 28.0895C60.369 37.8532 57.4751 48.0884 54.4855 58.5517C51.5316 68.891 46.7536 78.836 44.779 89.427C43.2674 97.534 44.0669 104.794 44.2626 112.919C44.308 114.8 45.6849 123.375 44.9855 123.142C41.6448 122.028 38.1468 121.454 34.7626 120.354C26.8872 117.794 19.0164 115.187 11.2189 112.403C8.89347 111.572 5.70367 109.889 7.55317 113.177C15.292 126.935 24.4759 139.588 38.067 148.286C38.6092 148.633 43.4955 150.467 41.7327 151.281C36.3114 153.783 30.4505 156.088 24.5397 157.012C22.0721 157.397 15.3388 156.175 17.1049 157.941C19.615 160.451 22.6277 162.468 25.3141 164.808C41.9586 179.305 64.5499 190.262 87.013 190.262C87.013 193.701 83.919 198.217 82.366 201.414C78.931 208.486 77.293 216.605 73.899 223.77C65.3746 241.766 55.4166 259.23 52.1622 279.118C49.2504 296.913 44.581 315.396 44.6757 333.486C44.7644 350.435 52.5292 365.294 69.149 370.557C73.369 371.893 77.284 373.589 81.643 374.48C83.711 374.903 86.067 374.925 87.478 376.649M272.161 323.882C267.687 322.988 271.582 327.809 272.161 323.882ZM272.161 323.882C279.739 325.398 298.143 318.644 309 305.45C317.892 294.644 325.253 287.878 326 273.904C326.379 266.826 323.03 256 323.03 256C323.03 256 319.957 240.765 318 231C313.071 206.406 306.004 198.224 305.5 168C305.105 144.276 315.657 135.89 331.904 118.289C350.453 98.194 376.521 94.556 402.897 96.139C407.778 96.432 415.595 96.654 420.141 98.927C420.729 99.221 414.443 104.422 413.429 105.639C393.481 129.577 381.164 162.84 400.625 190.262C404.762 196.092 409.559 201.75 414.359 207.042C417.263 210.244 422.168 212.254 422 216.955C421.73 224.506 416.117 231.906 414.359 239.259C411.555 250.982 405.694 261.971 403 273.904C400.722 283.99 402.751 295.502 404.342 305.45C405.131 310.377 406.489 315.079 406.924 320.113C407.523 327.046 404.51 333.343 401.554 339.423C395.46 351.96 387.807 362.932 373.983 367.304C350.892 374.606 346.426 377.315 323.03 370.557C310.231 366.859 298.643 360.938 282.694 362.709C278.449 363.18 258.963 368.352 255.433 369.627M272.161 323.882L266.946 350.5L255.433 369.627M87.478 376.649C90.5 388 94.463 397.475 98.63 407.731C100.898 413.313 106.575 417.554 112.88 415.527C117.859 413.927 122.64 406.539 124.91 402.155C127.104 397.918 133 383.5 134.41 378.921M87.478 376.649L84 353.5M255.433 369.627C250.077 371.561 260.907 368.038 255.433 369.627ZM255.433 369.627C250.949 370.929 246.436 371.701 241.957 372.88M241.957 372.88C241.381 373.032 241.583 375.932 241.337 377.527C240.365 383.849 239.886 389.788 237.155 395.856C232.19 406.889 221.788 417.093 212.269 405.459C208.16 400.437 206.09 393.776 204.112 387.698C203.033 384.386 200 374 199 369.73M241.957 372.88L244.5 352.5M199 369.73C197.459 369.045 193.008 370.557 191.101 370.557C185.934 370.557 180.463 372.235 175.302 372.88C168.306 373.754 161.355 374.748 154.339 375.41C147.672 376.039 141.05 378.605 134.41 378.921M199 369.73L195.5 348.5M134.41 378.921L140 354" stroke="#EE6C72" stroke-width="12" stroke-linecap="round"/>
<path d="M182.356 116C182.827 118.43 182.723 120.867 183.109 123.298C183.197 123.857 183.517 124.435 183.517 124.987" stroke="#EE6C72" stroke-width="26" stroke-linecap="round"/>
<path d="M98 116.666C98 117.399 98.539 118.128 98.688 118.86C98.932 120.06 98.774 121.271 98.774 122.472C98.774 123.361 99.794 124.846 98.387 125.653" stroke="#EE6C72" stroke-width="26" stroke-linecap="round"/>
<path d="M113.709 203C112.251 203.336 112.39 203.737 112.044 205.801C110.153 217.087 110.448 229 110.855 240.398C110.883 241.182 111.341 243.366 110.855 242.75C109.657 241.233 111.016 238.418 111.595 237.094C113.468 232.811 115.921 228.462 119.471 225.333C122.131 222.989 125.799 222.293 129.092 221.316C130.08 221.023 135.389 218.178 135.699 219.598C138.604 232.91 142.272 246.169 141.566 259.93C141.448 262.235 141.233 264.598 140.853 266.881C140.652 268.086 141.032 267.214 141.778 266.564C146.948 262.057 151.99 257.541 156.526 252.371C161.514 246.685 165.6 241.126 166.701 233.5C167.298 229.369 167.468 225.243 167.468 221.078C167.468 220.036 166.783 216.83 168.578 217.589C176.647 221.003 185.018 223.348 193.686 224.725C195.817 225.064 205.309 227.494 206.478 223.694C206.912 222.284 207.181 220.803 207.324 219.334C208.538 206.894 196.769 195.011 185.546 192.058" stroke="#5B65AF" stroke-width="9" stroke-linecap="round"/>
</svg>
